<svg width="44" height="43" viewBox="0 0 44 43" fill="none" xmlns="http://www.w3.org/2000/svg">
<g clip-path="url(#clip0_364_182)">
<path d="M21.9997 17.5908V25.9172H33.8396C33.3197 28.5949 31.7595 30.8623 29.4196 32.3868L36.5595 37.8009C40.7195 34.0483 43.1195 28.5365 43.1195 21.9888C43.1195 20.4642 42.9796 18.9982 42.7195 17.5911L21.9997 17.5908Z" fill="#4285F4"/>
<path d="M9.67023 25.5922L8.0599 26.7969L2.3598 31.1359C5.97979 38.1527 13.3992 43 21.9992 43C27.939 43 32.919 41.0846 36.559 37.801L29.4191 32.3869C27.4591 33.6769 24.9591 34.4588 21.9992 34.4588C16.2792 34.4588 11.4193 30.6865 9.67922 25.6046L9.67023 25.5922Z" fill="#34A853"/>
<path d="M2.35983 11.8641C0.85991 14.7567 0 18.0208 0 21.4998C0 24.9789 0.85991 28.243 2.35983 31.1356C2.35983 31.1551 9.67995 25.5847 9.67995 25.5847C9.23996 24.2947 8.97988 22.9266 8.97988 21.4996C8.97988 20.0726 9.23996 18.7045 9.67995 17.4145L2.35983 11.8641Z" fill="#FBBC05"/>
<path d="M21.9996 8.5609C25.2397 8.5609 28.1196 9.65542 30.4196 11.7664L36.7196 5.60962C32.8995 2.13059 27.9397 0 21.9996 0C13.3997 0 5.97979 4.82772 2.3598 11.8641L9.6797 17.415C11.4196 12.3331 16.2797 8.5609 21.9996 8.5609Z" fill="#EA4335"/>
</g>
<defs>
<clipPath id="clip0_364_182">
<rect width="44" height="43" fill="white"/>
</clipPath>
</defs>
</svg>
